<svg version="1.0" xmlns="http://www.w3.org/2000/svg"
 width="32.000000pt" height="32.000000pt" viewBox="0 0 32.000000 32.000000"
 preserveAspectRatio="xMidYMid meet">

<g transform="translate(0.000000,32.000000) scale(0.100000,-0.100000)"
fill="#ffffff" stroke="none">
<path d="M142 288 c-23 -23 -13 -38 23 -38 24 0 45 -9 67 -29 48 -43 48 -109
0 -152 -45 -40 -99 -40 -144 0 -34 30 -41 71 -24 136 7 28 6 29 -8 11 -41 -51
-23 -139 36 -176 44 -28 118 -23 153 10 36 34 50 84 36 131 -13 44 -62 89 -96
89 -18 0 -23 4 -19 15 7 18 -7 20 -24 3z"/>
<path d="M109 173 c-11 -13 -11 -17 -1 -20 6 -3 12 -16 12 -29 0 -13 5 -24 10
-24 12 0 13 77 1 84 -5 3 -15 -2 -22 -11z"/>
<path d="M160 176 c-15 -19 -9 -56 11 -69 25 -16 49 -1 49 31 0 46 -35 68 -60
38z m40 -31 c0 -16 -6 -25 -15 -25 -15 0 -21 31 -8 43 13 14 23 6 23 -18z"/>
</g>
</svg>
