<svg width="76" height="76" viewBox="0 0 76 76" fill="none" xmlns="http://www.w3.org/2000/svg">
<path d="M38 4.75C19.475 4.75 4.75 19.475 4.75 38C4.75 56.525 19.475 71.25 38 71.25C56.525 71.25 71.25 56.525 71.25 38C71.25 19.475 56.525 4.75 38 4.75ZM38 66.5C22.325 66.5 9.5 53.675 9.5 38C9.5 22.325 22.325 9.5 38 9.5C53.675 9.5 66.5 22.325 66.5 38C66.5 53.675 53.675 66.5 38 66.5Z" fill="white"/>
<path d="M50.825 54.625L38 41.8L25.175 54.625L21.375 50.825L34.2 38L21.375 25.175L25.175 21.375L38 34.2L50.825 21.375L54.625 25.175L41.8 38L54.625 50.825L50.825 54.625Z" fill="white"/>
</svg>
