<?xml version="1.0" standalone="no"?>
<!DOCTYPE svg PUBLIC "-//W3C//DTD SVG 20010904//EN"
 "http://www.w3.org/TR/2001/REC-SVG-20010904/DTD/svg10.dtd">
<svg version="1.0" xmlns="http://www.w3.org/2000/svg"
 width="48.000000pt" height="48.000000pt" viewBox="0 0 48.000000 48.000000"
 preserveAspectRatio="xMidYMid meet">

<g transform="translate(0.000000,48.000000) scale(0.100000,-0.100000)"
fill="#000000" stroke="none">
<path d="M152 438 c3 -9 39 -15 114 -18 l109 -5 5 -150 c4 -124 8 -150 20
-150 13 0 15 23 15 146 0 194 4 189 -152 189 -87 0 -114 -3 -111 -12z"/>
<path d="M79 373 c-11 -12 -14 -53 -14 -164 0 -190 -5 -184 145 -184 150 0
145 -6 145 184 0 111 -3 152 -14 164 -11 14 -34 17 -131 17 -97 0 -120 -3
-131 -17z m241 -162 c0 -127 -2 -150 -16 -155 -20 -8 -168 -8 -188 0 -14 5
-16 28 -16 155 l0 149 110 0 110 0 0 -149z"/>
</g>
</svg>
