<svg width="61" height="55" viewBox="0 0 61 55" fill="none" xmlns="http://www.w3.org/2000/svg">
<path d="M51 54.4998H9.83331C7.31376 54.4998 4.89739 53.4989 3.1158 51.7174C1.3342 49.9358 0.333313 47.5194 0.333313 44.9998V10.1665C0.333313 7.64695 1.3342 5.23059 3.1158 3.44899C4.89739 1.66739 7.31376 0.666504 9.83331 0.666504H51C53.5195 0.666504 55.9359 1.66739 57.7175 3.44899C59.4991 5.23059 60.5 7.64695 60.5 10.1665V44.9998C60.5 47.5194 59.4991 49.9358 57.7175 51.7174C55.9359 53.4989 53.5195 54.4998 51 54.4998ZM51 51.3332C52.6797 51.3332 54.2906 50.6659 55.4783 49.4782C56.6661 48.2904 57.3333 46.6795 57.3333 44.9998V10.1665C57.3333 8.4868 56.6661 6.87589 55.4783 5.68816C54.2906 4.50043 52.6797 3.83317 51 3.83317H9.83331C8.15361 3.83317 6.5427 4.50043 5.35497 5.68816C4.16724 6.87589 3.49998 8.4868 3.49998 10.1665V44.9998C3.49998 46.6795 4.16724 48.2904 5.35497 49.4782C6.5427 50.6659 8.15361 51.3332 9.83331 51.3332H51ZM35.1666 41.8332H13V19.6665H16.1666V36.4182L38.8083 13.8082L41.025 16.0248L18.415 38.6665H35.1666V41.8332Z" fill="white"/>
</svg>
