<svg version="1.0" xmlns="http://www.w3.org/2000/svg"
 width="32.000000pt" height="32.000000pt" viewBox="0 0 32.000000 32.000000"
 preserveAspectRatio="xMidYMid meet">

<g transform="translate(0.000000,32.000000) scale(0.100000,-0.100000)"
fill="#ffffff" stroke="none">
<path d="M2 248 l1 -73 6 65 6 65 65 6 65 6 -72 1 -73 2 2 -72z"/>
<path d="M240 311 l65 -6 6 -65 6 -65 1 73 2 72 -72 -2 -73 -1 65 -6z"/>
<path d="M59 258 c42 -45 44 -48 28 -66 -25 -28 -21 -32 28 -32 l45 0 0 -45
c0 -49 4 -53 32 -28 18 16 21 14 66 -28 l47 -44 -44 47 c-42 45 -44 48 -28 66
25 28 21 32 -28 32 l-45 0 0 45 c0 49 -4 53 -32 28 -18 -16 -21 -14 -66 28
l-47 44 44 -47z"/>
<path d="M2 73 l-2 -73 73 2 72 1 -65 6 -65 6 -6 65 -6 65 -1 -72z"/>
<path d="M308 78 l-3 -63 -65 -6 -65 -6 73 -1 72 -2 0 70 c0 87 -8 92 -12 8z"/>
</g>
</svg>
