<?xml version="1.0" standalone="no"?>
<!DOCTYPE svg PUBLIC "-//W3C//DTD SVG 20010904//EN"
 "http://www.w3.org/TR/2001/REC-SVG-20010904/DTD/svg10.dtd">
<svg version="1.0" xmlns="http://www.w3.org/2000/svg"
 width="24.000000pt" height="24.000000pt" viewBox="0 0 24.000000 24.000000"
 preserveAspectRatio="xMidYMid meet">

<g transform="translate(0.000000,24.000000) scale(0.100000,-0.100000)"
fill="#ffffff" stroke="none">
<path d="M114 211 c3 -5 -8 -11 -24 -14 -63 -13 -86 -106 -37 -155 74 -73 194
8 152 103 -13 29 -13 29 -8 -17 5 -41 2 -50 -20 -72 -34 -34 -79 -34 -112 -1
-50 49 -15 135 56 135 27 0 30 2 19 15 -13 16 -35 21 -26 6z"/>
<path d="M80 125 c-8 -9 -8 -15 -2 -15 6 0 13 -10 15 -22 3 -14 5 -9 6 15 1
41 -1 44 -19 22z"/>
<path d="M115 119 c-5 -14 -1 -27 9 -37 15 -15 17 -15 32 0 20 20 10 58 -16
58 -10 0 -22 -10 -25 -21z m35 -9 c0 -11 -4 -20 -10 -20 -5 0 -10 9 -10 20 0
11 5 20 10 20 6 0 10 -9 10 -20z"/>
</g>
</svg>
