<svg width="76" height="76" viewBox="0 0 76 76" fill="none" xmlns="http://www.w3.org/2000/svg">
<path d="M57 41.1665C57 51.6482 48.4817 60.1665 38 60.1665C27.5183 60.1665 19 51.6482 19 41.1665C19 30.6848 27.5183 22.1665 38 22.1665V34.8332L53.8333 18.9998L38 3.1665V15.8332C24.0033 15.8332 12.6667 27.1698 12.6667 41.1665C12.6667 55.1632 24.0033 66.4998 38 66.4998C51.9967 66.4998 63.3333 55.1632 63.3333 41.1665H57Z" fill="white"/>
<path d="M34.39 50.4765V36.9549H34.105L28.5 38.9499V41.1349L31.6983 40.1532V50.4765H34.39ZM38.7917 42.5599V44.9032C38.7917 50.9199 42.94 50.6665 43.3517 50.6665C43.795 50.6665 47.9117 50.9515 47.9117 44.9032V42.5599C47.9117 36.5432 43.7633 36.7965 43.3517 36.7965C42.9083 36.7965 38.7917 36.5115 38.7917 42.5599ZM45.2517 42.1799V45.2515C45.2517 47.6899 44.5867 48.5132 43.3833 48.5132C42.18 48.5132 41.4833 47.6899 41.4833 45.2515V42.1799C41.4833 39.8049 42.18 38.9815 43.3517 38.9815C44.555 38.9499 45.2517 39.8049 45.2517 42.1799Z" fill="white"/>
</svg>
