<svg xmlns="http://www.w3.org/2000/svg" version="1.1" width="32px" height="32px" style="shape-rendering:geometricPrecision; text-rendering:geometricPrecision; image-rendering:optimizeQuality; fill-rule:evenodd; clip-rule:evenodd" xmlns:xlink="http://www.w3.org/1999/xlink">
<g><path style="opacity:0.721" fill="#ffffff" d="M -0.5,-0.5 C 2.16667,-0.5 4.83333,-0.5 7.5,-0.5C 7.11934,0.931117 6.11934,1.76445 4.5,2C 7.92223,4.71926 10.4222,7.88593 12,11.5C 11.2825,12.4506 10.4491,12.6172 9.5,12C 7,9.5 4.5,7 2,4.5C 1.76445,6.11934 0.931117,7.11934 -0.5,7.5C -0.5,4.83333 -0.5,2.16667 -0.5,-0.5 Z"/></g>
<g><path style="opacity:0.721" fill="#ffffff" d="M 23.5,-0.5 C 26.1667,-0.5 28.8333,-0.5 31.5,-0.5C 31.5,2.16667 31.5,4.83333 31.5,7.5C 30.0689,7.11934 29.2355,6.11934 29,4.5C 26.2807,7.92223 23.1141,10.4222 19.5,12C 18.5494,11.2825 18.3828,10.4491 19,9.5C 21.5,7 24,4.5 26.5,2C 24.8807,1.76445 23.8807,0.931117 23.5,-0.5 Z"/></g>
<g><path style="opacity:0.723" fill="#ffffff" d="M 7.5,31.5 C 4.83333,31.5 2.16667,31.5 -0.5,31.5C -0.5,28.8333 -0.5,26.1667 -0.5,23.5C 0.931117,23.8807 1.76445,24.8807 2,26.5C 4.71926,23.0778 7.88593,20.5778 11.5,19C 12.4506,19.7175 12.6172,20.5509 12,21.5C 9.5,24 7,26.5 4.5,29C 6.11934,29.2355 7.11934,30.0689 7.5,31.5 Z"/></g>
<g><path style="opacity:0.721" fill="#ffffff" d="M 31.5,23.5 C 31.5,26.1667 31.5,28.8333 31.5,31.5C 28.8333,31.5 26.1667,31.5 23.5,31.5C 23.8807,30.0689 24.8807,29.2355 26.5,29C 23.0778,26.2807 20.5778,23.1141 19,19.5C 19.7175,18.5494 20.5509,18.3828 21.5,19C 24,21.5 26.5,24 29,26.5C 29.2355,24.8807 30.0689,23.8807 31.5,23.5 Z"/></g>
</svg>
