<svg width="61" height="55" viewBox="0 0 61 55" fill="none" xmlns="http://www.w3.org/2000/svg">
<path d="M9.83334 0.666504H51C53.5196 0.666504 55.9359 1.66739 57.7175 3.44899C59.4991 5.23059 60.5 7.64695 60.5 10.1665V44.9998C60.5 47.5194 59.4991 49.9358 57.7175 51.7174C55.9359 53.4989 53.5196 54.4998 51 54.4998H9.83334C7.31379 54.4998 4.89743 53.4989 3.11583 51.7174C1.33423 49.9358 0.333344 47.5194 0.333344 44.9998V10.1665C0.333344 7.64695 1.33423 5.23059 3.11583 3.44899C4.89743 1.66739 7.31379 0.666504 9.83334 0.666504ZM9.83334 3.83317C8.15364 3.83317 6.54273 4.50043 5.355 5.68816C4.16727 6.87589 3.50001 8.4868 3.50001 10.1665V44.9998C3.50001 46.6795 4.16727 48.2904 5.355 49.4782C6.54273 50.6659 8.15364 51.3332 9.83334 51.3332H51C52.6797 51.3332 54.2906 50.6659 55.4784 49.4782C56.6661 48.2904 57.3333 46.6795 57.3333 44.9998V10.1665C57.3333 8.4868 56.6661 6.87589 55.4784 5.68816C54.2906 4.50043 52.6797 3.83317 51 3.83317H9.83334ZM25.6667 13.3332H47.8333V35.4998H44.6667V18.7482L22.025 41.3582L19.8083 39.1415L42.4183 16.4998H25.6667V13.3332Z" fill="white"/>
</svg>
