<svg version="1.0" xmlns="http://www.w3.org/2000/svg"
 width="32.000000pt" height="32.000000pt" viewBox="0 0 32.000000 32.000000"
 preserveAspectRatio="xMidYMid meet">

<g transform="translate(0.000000,32.000000) scale(0.100000,-0.100000)"
fill="#ffffff" stroke="none">
<path d="M17 283 c-4 -3 -7 -60 -7 -125 0 -101 2 -120 17 -125 18 -7 192 80
220 109 22 25 9 38 -102 98 -92 49 -115 57 -128 43z m124 -65 c55 -29 99 -55
99 -58 0 -6 -193 -110 -204 -110 -3 0 -6 50 -6 110 0 61 3 110 6 110 4 0 51
-23 105 -52z"/>
<path d="M290 160 c0 -80 4 -130 10 -130 6 0 10 50 10 130 0 80 -4 130 -10
130 -6 0 -10 -50 -10 -130z"/>
</g>
</svg>
