<svg width="16" height="19" viewBox="0 0 16 19" fill="none" xmlns="http://www.w3.org/2000/svg">
<path d="M12.25 8C12.25 6.80653 11.7759 5.66193 10.932 4.81802C10.0881 3.97411 8.94347 3.5 7.75 3.5C6.55653 3.5 5.41193 3.97411 4.56802 4.81802C3.72411 5.66193 3.25 6.80653 3.25 8C3.25 13.25 1 14.75 1 14.75H14.5C14.5 14.75 12.25 13.25 12.25 8Z" stroke="#0E2B39" stroke-linecap="round" stroke-linejoin="round"/>
<path d="M9.04764 17.75C8.91578 17.9773 8.72652 18.166 8.49881 18.2971C8.27109 18.4283 8.01292 18.4973 7.75014 18.4973C7.48735 18.4973 7.22918 18.4283 7.00147 18.2971C6.77375 18.166 6.58449 17.9773 6.45264 17.75" stroke="#0E2B39" stroke-linecap="round" stroke-linejoin="round"/>
<circle cx="11.75" cy="4" r="4" fill="#FF0000"/>
</svg>
