<svg width="77" height="76" viewBox="0 0 77 76" fill="none" xmlns="http://www.w3.org/2000/svg">
<path d="M33.6875 23.75H28.875V52.25H33.6875V23.75ZM48.125 23.75H43.3125V52.25H48.125V23.75Z" fill="white"/>
<path d="M38.5 9.5C44.211 9.5 49.7936 11.1715 54.5421 14.3031C59.2906 17.4347 62.9916 21.8858 65.177 27.0935C67.3625 32.3012 67.9343 38.0316 66.8202 43.5601C65.706 49.0885 62.956 54.1667 58.9177 58.1525C54.8795 62.1383 49.7344 64.8527 44.1332 65.9524C38.532 67.0521 32.7262 66.4877 27.45 64.3306C22.1738 62.1735 17.6642 58.5206 14.4913 53.8338C11.3185 49.147 9.62502 43.6368 9.62502 38C9.62502 30.4413 12.6672 23.1922 18.0823 17.8475C23.4974 12.5027 30.8419 9.5 38.5 9.5ZM38.5 4.75C31.8373 4.75 25.3241 6.70008 19.7842 10.3536C14.2444 14.0072 9.92655 19.2001 7.37682 25.2758C4.8271 31.3514 4.15997 38.0369 5.45981 44.4868C6.75965 50.9366 9.96807 56.8612 14.6794 61.5113C19.3906 66.1614 25.3932 69.3282 31.9279 70.6111C38.4626 71.8941 45.2361 71.2356 51.3917 68.719C57.5472 66.2024 62.8085 61.9406 66.5101 56.4727C70.2118 51.0048 72.1875 44.5762 72.1875 38C72.1875 29.1816 68.6383 20.7243 62.3207 14.4887C56.003 8.25311 47.4345 4.75 38.5 4.75Z" fill="white"/>
</svg>
