<svg version="1.0" xmlns="http://www.w3.org/2000/svg"
 width="64.000000pt" height="64.000000pt" viewBox="0 0 64.000000 64.000000"
 preserveAspectRatio="xMidYMid meet">

<g transform="translate(0.000000,64.000000) scale(0.100000,-0.100000)"
fill="#737373" stroke="none">
<path d="M42 589 c2 -8 20 -62 38 -121 l33 -108 240 0 c132 0 238 2 236 4 -3
3 -470 206 -538 234 -10 3 -13 1 -9 -9z"/>
<path d="M110 316 c0 -2 -16 -54 -35 -117 -19 -62 -33 -114 -32 -115 2 -2 474
198 532 225 13 6 -62 10 -222 10 -134 1 -243 -1 -243 -3z"/>
</g>
</svg>
