<svg version="1.0" xmlns="http://www.w3.org/2000/svg"
 width="50.000000pt" height="50.000000pt" viewBox="0 0 50.000000 50.000000"
 preserveAspectRatio="xMidYMid meet">

<g transform="translate(0.000000,50.000000) scale(0.100000,-0.100000)"
fill="#000000" stroke="none">
<path d="M220 350 l0 -110 30 0 30 0 0 110 0 110 -30 0 -30 0 0 -110z m40 0
c0 -53 -4 -90 -10 -90 -6 0 -10 37 -10 90 0 53 4 90 10 90 6 0 10 -37 10 -90z"/>
<path d="M127 390 c-56 -22 -117 -65 -117 -84 0 -7 10 -22 23 -34 23 -22 24
-22 41 -3 10 11 42 30 72 42 30 13 54 27 54 32 0 15 -67 -11 -121 -46 -23 -15
-28 -16 -38 -3 -10 12 -5 20 28 44 22 16 61 35 86 42 25 7 45 17 45 21 0 13
-19 10 -73 -11z"/>
<path d="M300 401 c0 -4 20 -14 45 -21 25 -7 64 -26 86 -42 33 -23 38 -32 29
-43 -10 -12 -17 -11 -48 9 -31 19 -95 46 -108 46 -2 0 -4 -4 -4 -8 0 -5 24
-18 54 -31 30 -12 62 -31 72 -42 17 -19 18 -19 41 3 13 12 23 27 23 34 0 19
-62 63 -120 85 -56 21 -70 23 -70 10z"/>
<path d="M155 271 c-22 -10 -46 -26 -54 -35 -13 -15 -11 -20 11 -42 24 -25 25
-25 56 -7 32 18 41 33 22 33 -6 0 -19 -6 -30 -12 -15 -9 -22 -10 -31 -1 -16
16 -3 32 37 49 19 8 34 19 34 24 0 12 2 13 -45 -9z"/>
<path d="M300 280 c0 -5 15 -16 34 -24 40 -17 53 -33 37 -49 -9 -9 -16 -8 -31
1 -11 6 -24 12 -30 12 -19 0 -10 -15 22 -33 31 -18 32 -18 57 7 25 26 25 26 6
46 -25 24 -95 54 -95 40z"/>
<path d="M220 170 c0 -27 3 -30 30 -30 27 0 30 3 30 30 0 27 -3 30 -30 30 -27
0 -30 -3 -30 -30z m40 0 c0 -5 -4 -10 -10 -10 -5 0 -10 5 -10 10 0 6 5 10 10
10 6 0 10 -4 10 -10z"/>
<path d="M182 147 c-9 -10 -2 -22 28 -52 l40 -39 40 39 c30 30 37 42 28 52 -9
11 -14 8 -25 -14 -8 -16 -21 -35 -29 -43 -12 -13 -16 -13 -28 0 -8 8 -21 27
-29 43 -11 22 -16 25 -25 14z"/>
</g>
</svg>
