<svg width="22" height="22" viewBox="0 0 22 22" fill="none" xmlns="http://www.w3.org/2000/svg">
<mask id="path-1-inside-1_608_290" fill="white">
<path d="M7.20734 1.75977C4.20375 1.75977 1.75977 4.20375 1.75977 7.20734V14.7922C1.75977 17.7958 4.20375 20.2398 7.20734 20.2398H14.7922C17.7958 20.2398 20.2398 17.7958 20.2398 14.7922V7.20734C20.2398 4.20375 17.7958 1.75977 14.7922 1.75977H7.20734ZM7.20734 2.63977H14.7922C17.3203 2.63977 19.3598 4.67926 19.3598 7.20734V14.7922C19.3598 17.3203 17.3203 19.3598 14.7922 19.3598H7.20734C4.67926 19.3598 2.63977 17.3203 2.63977 14.7922V7.20734C2.63977 4.67926 4.67926 2.63977 7.20734 2.63977ZM16.3691 7.31648C16.2347 7.31516 16.0988 7.34976 15.9747 7.42734L13.4963 8.97594C13.1975 8.1132 12.3981 7.47977 11.4372 7.47977H5.71977C5.60307 7.47978 5.49117 7.52614 5.40865 7.60865C5.32614 7.69116 5.27978 7.80307 5.27977 7.91977V12.3172C5.27977 13.5282 6.27129 14.5198 7.48234 14.5198H13.1998C13.3165 14.5198 13.4284 14.4734 13.5109 14.3909C13.5934 14.3084 13.6398 14.1965 13.6398 14.0798V12.673L15.9747 14.1322C16.471 14.4425 17.1598 14.061 17.1598 13.4756V8.08391C17.1598 7.64486 16.7723 7.32039 16.3691 7.31648ZM16.2798 8.27383V13.2857L13.6398 11.6357V9.92383L16.2798 8.27383ZM6.15977 8.35977H11.4372C12.1727 8.35977 12.7598 8.94683 12.7598 9.68234V11.8798V13.6398H7.48234C6.74683 13.6398 6.15977 13.0527 6.15977 12.3172V8.35977Z"/>
</mask>
<path d="M7.20734 1.75977C4.20375 1.75977 1.75977 4.20375 1.75977 7.20734V14.7922C1.75977 17.7958 4.20375 20.2398 7.20734 20.2398H14.7922C17.7958 20.2398 20.2398 17.7958 20.2398 14.7922V7.20734C20.2398 4.20375 17.7958 1.75977 14.7922 1.75977H7.20734ZM7.20734 2.63977H14.7922C17.3203 2.63977 19.3598 4.67926 19.3598 7.20734V14.7922C19.3598 17.3203 17.3203 19.3598 14.7922 19.3598H7.20734C4.67926 19.3598 2.63977 17.3203 2.63977 14.7922V7.20734C2.63977 4.67926 4.67926 2.63977 7.20734 2.63977ZM16.3691 7.31648C16.2347 7.31516 16.0988 7.34976 15.9747 7.42734L13.4963 8.97594C13.1975 8.1132 12.3981 7.47977 11.4372 7.47977H5.71977C5.60307 7.47978 5.49117 7.52614 5.40865 7.60865C5.32614 7.69116 5.27978 7.80307 5.27977 7.91977V12.3172C5.27977 13.5282 6.27129 14.5198 7.48234 14.5198H13.1998C13.3165 14.5198 13.4284 14.4734 13.5109 14.3909C13.5934 14.3084 13.6398 14.1965 13.6398 14.0798V12.673L15.9747 14.1322C16.471 14.4425 17.1598 14.061 17.1598 13.4756V8.08391C17.1598 7.64486 16.7723 7.32039 16.3691 7.31648ZM16.2798 8.27383V13.2857L13.6398 11.6357V9.92383L16.2798 8.27383ZM6.15977 8.35977H11.4372C12.1727 8.35977 12.7598 8.94683 12.7598 9.68234V11.8798V13.6398H7.48234C6.74683 13.6398 6.15977 13.0527 6.15977 12.3172V8.35977Z" fill="white"/>
<path d="M16.3691 7.31648L16.3544 8.81641L16.3546 8.81641L16.3691 7.31648ZM15.9747 7.42734L16.7695 8.69944L16.7699 8.69921L15.9747 7.42734ZM13.4963 8.97594L12.0788 9.46677L12.6948 11.2455L14.2911 10.248L13.4963 8.97594ZM5.71977 7.47977V5.97977H5.71962L5.71977 7.47977ZM5.27977 7.91977L3.77977 7.91962V7.91977H5.27977ZM13.1998 14.5198V16.0198H13.1999L13.1998 14.5198ZM13.6398 14.0798L15.1398 14.0799V14.0798H13.6398ZM13.6398 12.673L14.4347 11.4009L12.1398 9.9667V12.673H13.6398ZM15.9747 14.1322L16.7699 12.8603L16.7696 12.8602L15.9747 14.1322ZM16.2798 8.27383H17.7798V5.56746L15.4848 7.00183L16.2798 8.27383ZM16.2798 13.2857L15.4848 14.5577L17.7798 15.9921V13.2857H16.2798ZM13.6398 11.6357H12.1398V12.4671L12.8448 12.9077L13.6398 11.6357ZM13.6398 9.92383L12.8448 8.65183L12.1398 9.09246V9.92383H13.6398ZM6.15977 8.35977V6.85977H4.65977V8.35977H6.15977ZM12.7598 13.6398V15.1398H14.2598V13.6398H12.7598ZM7.20734 0.259766C3.37532 0.259766 0.259766 3.37532 0.259766 7.20734H3.25977C3.25977 5.03218 5.03218 3.25977 7.20734 3.25977V0.259766ZM0.259766 7.20734V14.7922H3.25977V7.20734H0.259766ZM0.259766 14.7922C0.259766 18.6242 3.37532 21.7398 7.20734 21.7398V18.7398C5.03218 18.7398 3.25977 16.9674 3.25977 14.7922H0.259766ZM7.20734 21.7398H14.7922V18.7398H7.20734V21.7398ZM14.7922 21.7398C18.6242 21.7398 21.7398 18.6242 21.7398 14.7922H18.7398C18.7398 16.9674 16.9674 18.7398 14.7922 18.7398V21.7398ZM21.7398 14.7922V7.20734H18.7398V14.7922H21.7398ZM21.7398 7.20734C21.7398 3.37532 18.6242 0.259766 14.7922 0.259766V3.25977C16.9674 3.25977 18.7398 5.03218 18.7398 7.20734H21.7398ZM14.7922 0.259766H7.20734V3.25977H14.7922V0.259766ZM7.20734 4.13977H14.7922V1.13977H7.20734V4.13977ZM14.7922 4.13977C16.4918 4.13977 17.8598 5.50769 17.8598 7.20734H20.8598C20.8598 3.85083 18.1487 1.13977 14.7922 1.13977V4.13977ZM17.8598 7.20734V14.7922H20.8598V7.20734H17.8598ZM17.8598 14.7922C17.8598 16.4918 16.4918 17.8598 14.7922 17.8598V20.8598C18.1487 20.8598 20.8598 18.1487 20.8598 14.7922H17.8598ZM14.7922 17.8598H7.20734V20.8598H14.7922V17.8598ZM7.20734 17.8598C5.50769 17.8598 4.13977 16.4918 4.13977 14.7922H1.13977C1.13977 18.1487 3.85083 20.8598 7.20734 20.8598V17.8598ZM4.13977 14.7922V7.20734H1.13977V14.7922H4.13977ZM4.13977 7.20734C4.13977 5.50769 5.50769 4.13977 7.20734 4.13977V1.13977C3.85083 1.13977 1.13977 3.85083 1.13977 7.20734H4.13977ZM16.3839 5.81656C15.9776 5.81257 15.5582 5.91871 15.1795 6.15548L16.7699 8.69921C16.6394 8.78082 16.4918 8.81776 16.3544 8.81641L16.3839 5.81656ZM15.1798 6.15525L12.7014 7.70384L14.2911 10.248L16.7695 8.69944L15.1798 6.15525ZM14.9137 8.4851C14.4233 7.06916 13.0895 5.97977 11.4372 5.97977V8.97977C11.7067 8.97977 11.9716 9.15724 12.0788 9.46677L14.9137 8.4851ZM11.4372 5.97977H5.71977V8.97977H11.4372V5.97977ZM5.71962 5.97977C5.20515 5.97982 4.71177 6.18421 4.34799 6.54799L6.46931 8.66931C6.27056 8.86806 6.001 8.97974 5.71992 8.97977L5.71962 5.97977ZM4.34799 6.54799C3.98421 6.91177 3.77982 7.40515 3.77977 7.91962L6.77977 7.91992C6.77974 8.201 6.66806 8.47056 6.46931 8.66931L4.34799 6.54799ZM3.77977 7.91977V12.3172H6.77977V7.91977H3.77977ZM3.77977 12.3172C3.77977 14.3567 5.44287 16.0198 7.48234 16.0198V13.0198C7.09972 13.0198 6.77977 12.6998 6.77977 12.3172H3.77977ZM7.48234 16.0198H13.1998V13.0198H7.48234V16.0198ZM13.1999 16.0198C13.7144 16.0197 14.2078 15.8153 14.5715 15.4515L12.4502 13.3302C12.649 13.1315 12.9185 13.0198 13.1996 13.0198L13.1999 16.0198ZM14.5715 15.4515C14.9353 15.0878 15.1397 14.5944 15.1398 14.0799L12.1398 14.0796C12.1398 13.7985 12.2515 13.529 12.4502 13.3302L14.5715 15.4515ZM15.1398 14.0798V12.673H12.1398V14.0798H15.1398ZM12.8448 13.945L15.1797 15.4042L16.7696 12.8602L14.4347 11.4009L12.8448 13.945ZM15.1795 15.404C16.6745 16.3388 18.6598 15.2398 18.6598 13.4756H15.6598C15.6598 13.1421 15.8588 12.9206 16.0265 12.8277C16.1941 12.7348 16.4872 12.6836 16.7699 12.8603L15.1795 15.404ZM18.6598 13.4756V8.08391H15.6598V13.4756H18.6598ZM18.6598 8.08391C18.6598 6.70432 17.4866 5.82724 16.3837 5.81655L16.3546 8.81641C16.1668 8.8146 16.0102 8.74302 15.896 8.63714C15.7718 8.52206 15.6598 8.32722 15.6598 8.08391H18.6598ZM14.7798 8.27383V13.2857H17.7798V8.27383H14.7798ZM17.0748 12.0137L14.4348 10.3637L12.8448 12.9077L15.4848 14.5577L17.0748 12.0137ZM15.1398 11.6357V9.92383H12.1398V11.6357H15.1398ZM14.4348 11.1958L17.0748 9.54583L15.4848 7.00183L12.8448 8.65183L14.4348 11.1958ZM6.15977 9.85977H11.4372V6.85977H6.15977V9.85977ZM11.4372 9.85977C11.3968 9.85977 11.3489 9.84113 11.3136 9.8059C11.2784 9.77067 11.2598 9.72271 11.2598 9.68234H14.2598C14.2598 8.11841 13.0011 6.85977 11.4372 6.85977V9.85977ZM11.2598 9.68234V11.8798H14.2598V9.68234H11.2598ZM11.2598 11.8798V13.6398H14.2598V11.8798H11.2598ZM12.7598 12.1398H7.48234V15.1398H12.7598V12.1398ZM7.48234 12.1398C7.52271 12.1398 7.57067 12.1584 7.6059 12.1936C7.64113 12.2289 7.65977 12.2768 7.65977 12.3172H4.65977C4.65977 13.8811 5.91841 15.1398 7.48234 15.1398V12.1398ZM7.65977 12.3172V8.35977H4.65977V12.3172H7.65977Z" fill="white" mask="url(#path-1-inside-1_608_290)"/>
</svg>
